<?xml version="1.0" encoding="utf-8"?>
<!-- Generator: Adobe Illustrator 21.1.0, SVG Export Plug-In . SVG Version: 6.00 Build 0)  -->
<svg version="1.1" id="Capa_1" xmlns="http://www.w3.org/2000/svg" xmlns:xlink="http://www.w3.org/1999/xlink" x="0px" y="0px"
	 viewBox="0 0 60 60" style="enable-background:new 0 0 60 60;" xml:space="preserve">
<style type="text/css">
	.st0{fill:#FFFFFF;}
</style>
<path class="st0" d="M11.7,13l-0.8-5h-3C7.4,6.3,5.9,5,4,5C1.8,5,0,6.8,0,9s1.8,4,4,4c1.9,0,3.4-1.3,3.9-3h1.3l0.5,3h0l5.2,26
	c-2.5,0.2-4.5,2.1-4.8,4.5c-0.1,1.4,0.3,2.8,1.3,3.9c0.9,1,2.3,1.7,3.7,1.7h2c0,3.3,2.7,6,6,6s6-2.7,6-6h11c0,3.3,2.7,6,6,6
	s6-2.7,6-6h4c0.6,0,1-0.4,1-1s-0.4-1-1-1h-4.3c-0.8-2.3-3-4-5.7-4s-4.8,1.7-5.7,4H28.6c-0.8-2.3-3-4-5.6-4s-4.8,1.7-5.6,4H15
	c-0.8,0-1.7-0.4-2.2-1c-0.6-0.6-0.8-1.5-0.8-2.3c0.2-1.5,1.5-2.7,3.2-2.7H16c0,0,0,0,0,0h39c2.8,0,5-2.2,5-5V13H11.7z M4,11
	c-1.1,0-2-0.9-2-2s0.9-2,2-2s2,0.9,2,2S5.1,11,4,11z M46,45c2.2,0,4,1.8,4,4s-1.8,4-4,4s-4-1.8-4-4S43.8,45,46,45z M23,45
	c2.2,0,4,1.8,4,4s-1.8,4-4,4s-4-1.8-4-4S20.8,45,23,45z M58,36c0,1.6-1.3,3-3,3H16.8l-4.8-24H58V36z"/>
</svg>
